<?xml version="1.0" encoding="utf-8"?>
<!-- Generator: Adobe Illustrator 23.0.2, SVG Export Plug-In . SVG Version: 6.00 Build 0)  -->
<svg version="1.1" id="Layer_1" xmlns="http://www.w3.org/2000/svg" xmlns:xlink="http://www.w3.org/1999/xlink" x="0px" y="0px"
	 viewBox="0 0 364.13 81.76" style="enable-background:new 0 0 364.13 81.76;" xml:space="preserve">
<style type="text/css">
	.st0{fill:#06083C;}
	.st1{fill:#FFFFFF;}
	.st2{fill:url(#SVGID_1_);}
	.st3{fill:url(#SVGID_2_);}
	.st4{fill:url(#SVGID_3_);}
	.st5{fill:url(#SVGID_4_);}
	.st6{fill:url(#SVGID_5_);}
</style>
<g>
	<g>
		<path class="st1" d="M159.4,40.21c0.43-0.07,0.88-0.13,1.35-0.16c0.47-0.04,0.94-0.05,1.4-0.05c0.47,0,0.94,0.02,1.4,0.05
			c0.47,0.04,0.9,0.09,1.3,0.16v18.93c-0.76,0.32-1.58,0.6-2.48,0.84s-1.84,0.41-2.81,0.54c-0.97,0.12-1.94,0.22-2.91,0.3
			c-0.97,0.07-1.89,0.11-2.75,0.11c-2.88,0-5.47-0.45-7.77-1.35c-2.3-0.9-4.24-2.2-5.83-3.91c-1.58-1.71-2.79-3.79-3.64-6.23
			c-0.84-2.44-1.27-5.21-1.27-8.31c0-3.09,0.43-5.89,1.3-8.39c0.86-2.5,2.09-4.63,3.69-6.39s3.51-3.12,5.72-4.07
			c2.21-0.95,4.67-1.43,7.36-1.43c2.05,0,3.83,0.14,5.34,0.4c1.51,0.27,2.88,0.64,4.1,1.11c-0.07,0.83-0.22,1.59-0.46,2.29
			c-0.24,0.7-0.51,1.45-0.84,2.24c-1.01-0.32-2.09-0.61-3.27-0.86c-1.17-0.25-2.63-0.38-4.39-0.38c-1.91,0-3.64,0.34-5.21,1.02
			c-1.56,0.68-2.9,1.68-3.99,2.99c-1.1,1.31-1.95,2.93-2.56,4.86c-0.61,1.92-0.92,4.13-0.92,6.61c0,2.55,0.31,4.76,0.94,6.61
			s1.52,3.4,2.67,4.64c1.15,1.24,2.51,2.16,4.08,2.75c1.56,0.59,3.3,0.89,5.2,0.89c1.15,0,2.16-0.06,3.02-0.19
			c0.86-0.13,1.6-0.28,2.21-0.46V40.21z"/>
		<path class="st1" d="M177.25,47.76c0.07,3.02,0.85,5.23,2.35,6.64c1.49,1.4,3.69,2.1,6.61,2.1c2.55,0,4.98-0.45,7.28-1.35
			c0.29,0.54,0.52,1.19,0.7,1.97c0.18,0.77,0.29,1.54,0.33,2.29c-1.19,0.5-2.49,0.88-3.91,1.13c-1.42,0.25-2.99,0.38-4.72,0.38
			c-2.52,0-4.68-0.35-6.47-1.05c-1.8-0.7-3.28-1.69-4.45-2.97c-1.17-1.28-2.02-2.79-2.56-4.53c-0.54-1.74-0.81-3.66-0.81-5.75
			c0-2.05,0.26-3.97,0.78-5.75c0.52-1.78,1.32-3.33,2.4-4.64c1.08-1.31,2.44-2.36,4.08-3.13c1.63-0.77,3.57-1.16,5.8-1.16
			c1.9,0,3.58,0.32,5.01,0.97c1.44,0.65,2.64,1.54,3.62,2.67c0.97,1.13,1.71,2.48,2.21,4.05c0.5,1.57,0.75,3.26,0.75,5.1
			c0,0.5-0.02,1.03-0.06,1.59s-0.07,1.03-0.11,1.43H177.25z M190.96,43.77c0-1.01-0.14-1.97-0.4-2.89c-0.27-0.92-0.67-1.72-1.19-2.4
			c-0.52-0.68-1.19-1.23-2-1.64c-0.81-0.41-1.77-0.62-2.89-0.62c-2.19,0-3.87,0.67-5.04,2c-1.17,1.33-1.88,3.18-2.13,5.56H190.96z"
			/>
		<path class="st1" d="M204.28,36.86h-4.2l-0.22-0.75l9.28-10.36h0.43v6.85h7.01c0.15,0.61,0.22,1.29,0.22,2.05
			c0,0.39-0.02,0.77-0.06,1.13s-0.09,0.72-0.16,1.08h-7.01v12.62c0,1.51,0.06,2.72,0.19,3.61c0.13,0.9,0.34,1.59,0.64,2.08
			c0.31,0.49,0.72,0.81,1.24,0.97c0.52,0.16,1.18,0.24,1.97,0.24c0.61,0,1.19-0.05,1.73-0.13c0.54-0.09,1.03-0.19,1.46-0.3
			c0.25,0.72,0.4,1.46,0.46,2.21c0.06,0.76,0.08,1.42,0.08,2c-0.72,0.18-1.47,0.31-2.26,0.4c-0.79,0.09-1.64,0.14-2.53,0.14
			c-2.59,0-4.61-0.63-6.07-1.89c-1.45-1.26-2.19-3.35-2.19-6.26V36.86z"/>
		<path class="st1" d="M223,26.29h21.31c0.07-0.36,0.12-0.75,0.14-1.19c0.02-0.43,0.02-0.84,0.02-1.24c0-0.86-0.05-1.65-0.16-2.37
			H223V26.29z"/>
		<path class="st1" d="M244.74,55.47H228.5V42.2h12.62c0.07-0.36,0.13-0.75,0.16-1.19c0.04-0.43,0.06-0.84,0.06-1.24
			c0-0.39-0.02-0.8-0.06-1.21c-0.03-0.36-0.08-0.69-0.14-1.02H223v22.73h21.74c0.07-0.36,0.12-0.75,0.13-1.19
			c0.02-0.43,0.03-0.84,0.03-1.24C244.9,56.98,244.85,56.19,244.74,55.47z"/>
		<path class="st1" d="M266.1,42.04c0-2.12-0.54-3.6-1.62-4.42c-1.08-0.83-2.64-1.24-4.69-1.24c-1.26,0-2.44,0.1-3.53,0.3
			c-1.1,0.2-2.17,0.46-3.21,0.78c-0.68-1.19-1.03-2.61-1.03-4.26c1.22-0.39,2.57-0.7,4.05-0.92c1.47-0.22,2.89-0.32,4.26-0.32
			c3.6,0,6.33,0.82,8.2,2.45c1.87,1.64,2.81,4.25,2.81,7.85v17.32c-1.26,0.29-2.79,0.59-4.59,0.89c-1.8,0.3-3.64,0.46-5.5,0.46
			c-1.76,0-3.36-0.16-4.77-0.49c-1.42-0.32-2.63-0.84-3.62-1.56c-0.99-0.72-1.75-1.64-2.29-2.75c-0.54-1.11-0.81-2.46-0.81-4.05
			c0-1.55,0.31-2.9,0.94-4.07s1.48-2.14,2.56-2.91c1.08-0.77,2.32-1.35,3.72-1.73c1.4-0.38,2.88-0.57,4.43-0.57
			c1.15,0,2.09,0.03,2.83,0.08c0.73,0.05,1.36,0.12,1.86,0.19V42.04z M266.1,47.27c-0.54-0.07-1.22-0.14-2.05-0.22
			c-0.83-0.07-1.53-0.11-2.11-0.11c-2.23,0-3.93,0.41-5.1,1.24c-1.17,0.83-1.75,2.09-1.75,3.78c0,1.08,0.2,1.92,0.59,2.53
			c0.39,0.61,0.89,1.08,1.48,1.4c0.59,0.32,1.25,0.52,1.97,0.59c0.72,0.07,1.4,0.11,2.05,0.11c0.83,0,1.68-0.05,2.56-0.14
			c0.88-0.09,1.66-0.22,2.35-0.4V47.27z"/>
		<path class="st1" d="M278.89,55.26c0.97,0.39,2.04,0.71,3.21,0.94c1.17,0.23,2.33,0.35,3.48,0.35c0.83,0,1.62-0.09,2.37-0.27
			c0.75-0.18,1.41-0.45,1.97-0.81c0.56-0.36,1.01-0.8,1.35-1.32c0.34-0.52,0.51-1.11,0.51-1.75c0-0.72-0.13-1.31-0.4-1.78
			c-0.27-0.47-0.63-0.86-1.08-1.19c-0.45-0.32-0.97-0.6-1.56-0.84c-0.59-0.23-1.23-0.46-1.92-0.67l-1.89-0.7
			c-2.3-0.86-3.97-1.84-5.02-2.91c-1.04-1.08-1.56-2.53-1.56-4.37c0-2.44,0.87-4.39,2.62-5.83c1.74-1.44,4.31-2.16,7.69-2.16
			c1.4,0,2.78,0.14,4.13,0.4s2.53,0.59,3.53,0.94c-0.07,0.72-0.2,1.44-0.4,2.16c-0.2,0.72-0.44,1.38-0.73,1.99
			c-0.79-0.29-1.73-0.57-2.83-0.84c-1.1-0.27-2.27-0.4-3.53-0.4c-1.33,0-2.51,0.23-3.53,0.7c-1.03,0.47-1.54,1.29-1.54,2.48
			c0,0.61,0.13,1.13,0.38,1.56s0.59,0.8,1.03,1.11c0.43,0.31,0.92,0.57,1.48,0.78c0.56,0.22,1.16,0.43,1.81,0.65l2.37,0.81
			c0.86,0.29,1.68,0.63,2.46,1.03s1.44,0.89,2,1.48c0.56,0.59,1.01,1.31,1.35,2.16c0.34,0.84,0.51,1.86,0.51,3.05
			c0,1.33-0.27,2.54-0.81,3.64c-0.54,1.1-1.3,2.03-2.29,2.8c-0.99,0.77-2.19,1.38-3.59,1.81c-1.4,0.43-2.95,0.65-4.64,0.65
			c-1.73,0-3.24-0.12-4.54-0.35c-1.29-0.23-2.5-0.55-3.61-0.94c0.07-0.72,0.22-1.45,0.46-2.19
			C278.34,56.71,278.6,55.98,278.89,55.26z"/>
		<path class="st1" d="M305.54,36.81h-3.51c-0.07-0.29-0.13-0.62-0.16-1s-0.05-0.75-0.05-1.11c0-0.36,0.02-0.73,0.05-1.11
			s0.09-0.71,0.16-1h8.74v27.68c-0.39,0.07-0.83,0.13-1.32,0.16c-0.48,0.04-0.93,0.06-1.32,0.06c-0.36,0-0.78-0.02-1.27-0.06
			c-0.48-0.04-0.93-0.09-1.32-0.16V36.81z"/>
		<linearGradient id="SVGID_1_" gradientUnits="userSpaceOnUse" x1="307.2405" y1="17.3389" x2="307.2405" y2="33.2645">
			<stop  offset="0" style="stop-color:#18DDBA"/>
			<stop  offset="1" style="stop-color:#1B54B8"/>
		</linearGradient>
		<path class="st2" d="M304.35,26.5c-0.07-0.43-0.12-0.9-0.14-1.4c-0.02-0.5-0.02-0.95-0.02-1.35c0-0.4,0.01-0.84,0.02-1.35
			c0.02-0.5,0.06-0.95,0.14-1.35c0.47-0.07,0.97-0.13,1.51-0.16c0.54-0.04,1.01-0.06,1.4-0.06c0.4,0,0.86,0.02,1.4,0.06
			c0.54,0.04,1.03,0.09,1.46,0.16c0.07,0.4,0.11,0.84,0.13,1.35c0.02,0.5,0.03,0.95,0.03,1.35c0,0.39-0.01,0.84-0.03,1.35
			c-0.02,0.5-0.06,0.97-0.13,1.4c-0.43,0.07-0.91,0.13-1.43,0.16c-0.52,0.04-0.98,0.06-1.38,0.06c-0.43,0-0.92-0.02-1.46-0.06
			C305.32,26.63,304.82,26.58,304.35,26.5z"/>
		<path class="st1" d="M323.45,47.76c0.07,3.02,0.86,5.23,2.35,6.64c1.49,1.4,3.7,2.1,6.61,2.1c2.55,0,4.98-0.45,7.28-1.35
			c0.29,0.54,0.52,1.19,0.7,1.97c0.18,0.77,0.29,1.54,0.32,2.29c-1.19,0.5-2.49,0.88-3.91,1.13c-1.42,0.25-2.99,0.38-4.72,0.38
			c-2.52,0-4.68-0.35-6.48-1.05c-1.8-0.7-3.28-1.69-4.45-2.97c-1.17-1.28-2.02-2.79-2.56-4.53c-0.54-1.74-0.81-3.66-0.81-5.75
			c0-2.05,0.26-3.97,0.78-5.75s1.32-3.33,2.4-4.64c1.08-1.31,2.44-2.36,4.07-3.13c1.64-0.77,3.57-1.16,5.8-1.16
			c1.91,0,3.58,0.32,5.02,0.97c1.44,0.65,2.64,1.54,3.61,2.67c0.97,1.13,1.71,2.48,2.21,4.05c0.5,1.57,0.75,3.26,0.75,5.1
			c0,0.5-0.02,1.03-0.05,1.59s-0.07,1.03-0.11,1.43H323.45z M337.15,43.77c0-1.01-0.13-1.97-0.4-2.89c-0.27-0.92-0.66-1.72-1.19-2.4
			c-0.52-0.68-1.19-1.23-2-1.64c-0.81-0.41-1.77-0.62-2.88-0.62c-2.2,0-3.87,0.67-5.05,2c-1.17,1.33-1.88,3.18-2.13,5.56H337.15z"/>
		<path class="st1" d="M349.45,32.6c0.4-0.07,0.77-0.13,1.13-0.16c0.36-0.04,0.74-0.05,1.14-0.05c0.39,0,0.79,0.02,1.19,0.05
			c0.39,0.04,0.75,0.09,1.08,0.16c0.11,0.54,0.22,1.25,0.32,2.13c0.11,0.88,0.17,1.63,0.17,2.24c0.75-1.22,1.75-2.28,2.99-3.18
			c1.24-0.9,2.83-1.35,4.77-1.35c0.29,0,0.59,0.01,0.89,0.03c0.31,0.02,0.57,0.05,0.78,0.08c0.07,0.32,0.13,0.67,0.16,1.03
			c0.04,0.36,0.06,0.74,0.06,1.13c0,0.43-0.03,0.88-0.08,1.35c-0.05,0.47-0.12,0.92-0.19,1.35c-0.29-0.07-0.59-0.11-0.89-0.11
			c-0.31,0-0.55,0-0.73,0c-0.97,0-1.89,0.14-2.78,0.4c-0.88,0.27-1.67,0.75-2.37,1.43c-0.7,0.68-1.26,1.62-1.67,2.81
			c-0.41,1.19-0.62,2.72-0.62,4.59v13.76c-0.4,0.07-0.84,0.13-1.32,0.16c-0.49,0.04-0.93,0.06-1.32,0.06
			c-0.39,0-0.83-0.02-1.32-0.06s-0.94-0.09-1.38-0.16V32.6z"/>
	</g>
	<g>
		<g>
			<linearGradient id="SVGID_2_" gradientUnits="userSpaceOnUse" x1="76.5441" y1="61.8621" x2="5.2101" y2="9.2611">
				<stop  offset="0" style="stop-color:#18DDBA"/>
				<stop  offset="1" style="stop-color:#1B54B8"/>
			</linearGradient>
			<polygon class="st3" points="55.3,81.76 14.43,40.9 55.32,0.01 40.89,0.01 0,40.9 40.87,81.76 			"/>
		</g>
		<polygon class="st1" points="87.7,25.19 62.5,0 76.93,0 102.13,25.19 		"/>
		<linearGradient id="SVGID_3_" gradientUnits="userSpaceOnUse" x1="112.8085" y1="32.5503" x2="68.3954" y2="82.7943">
			<stop  offset="0" style="stop-color:#18DDBA"/>
			<stop  offset="1" style="stop-color:#1B54B8"/>
		</linearGradient>
		<polygon class="st4" points="117.83,40.89 102.15,56.57 76.96,81.76 62.53,81.76 103.4,40.89 97.9,35.39 112.33,35.39 		"/>
		<linearGradient id="SVGID_4_" gradientUnits="userSpaceOnUse" x1="50.3392" y1="40.881" x2="117.8305" y2="40.881">
			<stop  offset="0" style="stop-color:#18DDBA"/>
			<stop  offset="1" style="stop-color:#1B54B8"/>
		</linearGradient>
		<polygon class="st5" points="117.83,40.89 112.35,46.37 50.34,46.37 50.34,35.39 112.33,35.39 		"/>
		<linearGradient id="SVGID_5_" gradientUnits="userSpaceOnUse" x1="5.7899" y1="46.2107" x2="42.7595" y2="2.666">
			<stop  offset="0" style="stop-color:#18DDBA"/>
			<stop  offset="1" style="stop-color:#1B54B8"/>
		</linearGradient>
		<polygon class="st6" points="14.43,40.9 0,40.9 40.89,0.01 55.32,0.01 		"/>
	</g>
</g>
</svg>
